<mxfile host="app.diagrams.net" modified="2024-05-14T05:12:18.575Z" agent="Mozilla/5.0 (Windows NT 10.0; Win64; x64) AppleWebKit/537.36 (KHTML, like Gecko) Chrome/124.0.0.0 Safari/537.36" etag="D8C7YRr1dK2o3j53WkAW" version="24.4.0" type="google">
  <diagram name="Page-1" id="ylj5hwpVgLErkXvnG4pp">
    <mxGraphModel grid="1" page="1" gridSize="10" guides="1" tooltips="1" connect="1" arrows="1" fold="1" pageScale="1" pageWidth="850" pageHeight="1100" math="0" shadow="0">
      <root>
        <mxCell id="0" />
        <mxCell id="1" parent="0" />
        <mxCell id="eLQsRvn9i9R8ugrclSOC-23" value="Inicio de sesión" style="rounded=0;whiteSpace=wrap;html=1;" vertex="1" parent="1">
          <mxGeometry x="340" y="150" width="120" height="30" as="geometry" />
        </mxCell>
        <mxCell id="eLQsRvn9i9R8ugrclSOC-27" value="" style="endArrow=none;html=1;rounded=0;entryX=1;entryY=0.75;entryDx=0;entryDy=0;exitX=0;exitY=0.5;exitDx=0;exitDy=0;" edge="1" parent="1" source="eLQsRvn9i9R8ugrclSOC-28" target="eLQsRvn9i9R8ugrclSOC-23">
          <mxGeometry width="50" height="50" relative="1" as="geometry">
            <mxPoint x="580" y="170" as="sourcePoint" />
            <mxPoint x="450" y="170" as="targetPoint" />
            <Array as="points" />
          </mxGeometry>
        </mxCell>
        <mxCell id="eLQsRvn9i9R8ugrclSOC-28" value="Contraseña" style="ellipse;whiteSpace=wrap;html=1;" vertex="1" parent="1">
          <mxGeometry x="610" y="145" width="70" height="30" as="geometry" />
        </mxCell>
        <mxCell id="eLQsRvn9i9R8ugrclSOC-30" value="reintento de contraseña" style="ellipse;whiteSpace=wrap;html=1;" vertex="1" parent="1">
          <mxGeometry x="770" y="140" width="110" height="30" as="geometry" />
        </mxCell>
        <mxCell id="eLQsRvn9i9R8ugrclSOC-31" value="&lt;font style=&quot;font-size: 9px;&quot;&gt;Extend&lt;/font&gt;" style="text;html=1;align=center;verticalAlign=middle;whiteSpace=wrap;rounded=0;rotation=-5;" vertex="1" parent="1">
          <mxGeometry x="700" y="130" width="60" height="30" as="geometry" />
        </mxCell>
        <mxCell id="eLQsRvn9i9R8ugrclSOC-32" value="" style="endArrow=classic;html=1;rounded=0;exitX=0;exitY=0.5;exitDx=0;exitDy=0;entryX=1.006;entryY=0.373;entryDx=0;entryDy=0;entryPerimeter=0;" edge="1" parent="1" source="eLQsRvn9i9R8ugrclSOC-30" target="eLQsRvn9i9R8ugrclSOC-28">
          <mxGeometry width="50" height="50" relative="1" as="geometry">
            <mxPoint x="700" y="160" as="sourcePoint" />
            <mxPoint x="500" y="170" as="targetPoint" />
          </mxGeometry>
        </mxCell>
        <mxCell id="eLQsRvn9i9R8ugrclSOC-33" value="" style="endArrow=none;html=1;rounded=0;entryX=0.5;entryY=1;entryDx=0;entryDy=0;" edge="1" parent="1" target="eLQsRvn9i9R8ugrclSOC-23">
          <mxGeometry width="50" height="50" relative="1" as="geometry">
            <mxPoint x="400" y="210" as="sourcePoint" />
            <mxPoint x="500" y="170" as="targetPoint" />
          </mxGeometry>
        </mxCell>
        <mxCell id="eLQsRvn9i9R8ugrclSOC-35" value="Formulario Cliente" style="rounded=0;whiteSpace=wrap;html=1;" vertex="1" parent="1">
          <mxGeometry x="340" y="210" width="120" height="30" as="geometry" />
        </mxCell>
        <mxCell id="eLQsRvn9i9R8ugrclSOC-36" value="" style="endArrow=none;html=1;rounded=0;exitX=1;exitY=0.25;exitDx=0;exitDy=0;" edge="1" parent="1" source="eLQsRvn9i9R8ugrclSOC-35" target="eLQsRvn9i9R8ugrclSOC-37">
          <mxGeometry width="50" height="50" relative="1" as="geometry">
            <mxPoint x="450" y="220" as="sourcePoint" />
            <mxPoint x="510" y="210" as="targetPoint" />
          </mxGeometry>
        </mxCell>
        <mxCell id="eLQsRvn9i9R8ugrclSOC-37" value="ID_Cliente" style="ellipse;whiteSpace=wrap;html=1;" vertex="1" parent="1">
          <mxGeometry x="490" y="190" width="110" height="20" as="geometry" />
        </mxCell>
        <mxCell id="eLQsRvn9i9R8ugrclSOC-41" value="" style="endArrow=none;html=1;rounded=0;exitX=1;exitY=0.75;exitDx=0;exitDy=0;entryX=0;entryY=0.5;entryDx=0;entryDy=0;" edge="1" parent="1" source="eLQsRvn9i9R8ugrclSOC-35" target="eLQsRvn9i9R8ugrclSOC-49">
          <mxGeometry width="50" height="50" relative="1" as="geometry">
            <mxPoint x="560" y="280" as="sourcePoint" />
            <mxPoint x="611.8399999999999" y="220.95000000000005" as="targetPoint" />
          </mxGeometry>
        </mxCell>
        <mxCell id="eLQsRvn9i9R8ugrclSOC-48" value="Direccion" style="ellipse;whiteSpace=wrap;html=1;" vertex="1" parent="1">
          <mxGeometry x="170.02" y="185" width="59.98" height="30" as="geometry" />
        </mxCell>
        <mxCell id="eLQsRvn9i9R8ugrclSOC-49" value="Nombre_completo" style="ellipse;whiteSpace=wrap;html=1;" vertex="1" parent="1">
          <mxGeometry x="555.02" y="215" width="114.98" height="30" as="geometry" />
        </mxCell>
        <mxCell id="eLQsRvn9i9R8ugrclSOC-53" value="" style="endArrow=none;html=1;rounded=0;entryX=0.5;entryY=1;entryDx=0;entryDy=0;" edge="1" parent="1" target="eLQsRvn9i9R8ugrclSOC-35">
          <mxGeometry width="50" height="50" relative="1" as="geometry">
            <mxPoint x="400" y="270" as="sourcePoint" />
            <mxPoint x="500" y="300" as="targetPoint" />
          </mxGeometry>
        </mxCell>
        <mxCell id="eLQsRvn9i9R8ugrclSOC-55" value="" style="endArrow=none;html=1;rounded=0;entryX=0;entryY=1;entryDx=0;entryDy=0;" edge="1" parent="1" target="eLQsRvn9i9R8ugrclSOC-35" source="eLQsRvn9i9R8ugrclSOC-70">
          <mxGeometry width="50" height="50" relative="1" as="geometry">
            <mxPoint x="272.37891420004485" y="312.5672698888641" as="sourcePoint" />
            <mxPoint x="500" y="180" as="targetPoint" />
          </mxGeometry>
        </mxCell>
        <mxCell id="eLQsRvn9i9R8ugrclSOC-59" value="" style="endArrow=none;html=1;rounded=0;entryX=0;entryY=0.5;entryDx=0;entryDy=0;exitX=1;exitY=0.5;exitDx=0;exitDy=0;" edge="1" parent="1" source="eLQsRvn9i9R8ugrclSOC-48" target="eLQsRvn9i9R8ugrclSOC-35">
          <mxGeometry width="50" height="50" relative="1" as="geometry">
            <mxPoint x="240" y="220" as="sourcePoint" />
            <mxPoint x="330.02" y="215" as="targetPoint" />
            <Array as="points" />
          </mxGeometry>
        </mxCell>
        <mxCell id="eLQsRvn9i9R8ugrclSOC-60" value="Alergias" style="ellipse;whiteSpace=wrap;html=1;" vertex="1" parent="1">
          <mxGeometry x="192.5" y="220" width="80" height="30" as="geometry" />
        </mxCell>
        <mxCell id="eLQsRvn9i9R8ugrclSOC-61" value="" style="endArrow=none;html=1;rounded=0;entryX=0;entryY=0.75;entryDx=0;entryDy=0;" edge="1" parent="1" source="eLQsRvn9i9R8ugrclSOC-60" target="eLQsRvn9i9R8ugrclSOC-35">
          <mxGeometry width="50" height="50" relative="1" as="geometry">
            <mxPoint x="290" y="330" as="sourcePoint" />
            <mxPoint x="340" y="280" as="targetPoint" />
          </mxGeometry>
        </mxCell>
        <mxCell id="eLQsRvn9i9R8ugrclSOC-62" value="Telefono" style="ellipse;whiteSpace=wrap;html=1;" vertex="1" parent="1">
          <mxGeometry x="160" y="142.5" width="70" height="30" as="geometry" />
        </mxCell>
        <mxCell id="eLQsRvn9i9R8ugrclSOC-63" value="" style="endArrow=none;html=1;rounded=0;exitX=0;exitY=0.25;exitDx=0;exitDy=0;entryX=0.924;entryY=0.749;entryDx=0;entryDy=0;entryPerimeter=0;" edge="1" parent="1" source="eLQsRvn9i9R8ugrclSOC-35" target="eLQsRvn9i9R8ugrclSOC-62">
          <mxGeometry width="50" height="50" relative="1" as="geometry">
            <mxPoint x="160" y="260" as="sourcePoint" />
            <mxPoint x="210" y="210" as="targetPoint" />
          </mxGeometry>
        </mxCell>
        <mxCell id="eLQsRvn9i9R8ugrclSOC-70" value="Padecimientos" style="ellipse;whiteSpace=wrap;html=1;" vertex="1" parent="1">
          <mxGeometry x="182.5" y="255" width="90" height="35" as="geometry" />
        </mxCell>
        <mxCell id="eLQsRvn9i9R8ugrclSOC-82" value="Diseño de pestañas y precio" style="rounded=0;whiteSpace=wrap;html=1;" vertex="1" parent="1">
          <mxGeometry x="340" y="270" width="120" height="40" as="geometry" />
        </mxCell>
        <mxCell id="eLQsRvn9i9R8ugrclSOC-88" value="" style="endArrow=none;html=1;rounded=0;exitX=1;exitY=0.5;exitDx=0;exitDy=0;" edge="1" parent="1" target="eLQsRvn9i9R8ugrclSOC-89" source="eLQsRvn9i9R8ugrclSOC-82">
          <mxGeometry width="50" height="50" relative="1" as="geometry">
            <mxPoint x="350" y="370" as="sourcePoint" />
            <mxPoint x="590" y="310" as="targetPoint" />
            <Array as="points" />
          </mxGeometry>
        </mxCell>
        <mxCell id="eLQsRvn9i9R8ugrclSOC-89" value="Costo" style="ellipse;whiteSpace=wrap;html=1;" vertex="1" parent="1">
          <mxGeometry x="515" y="302.5" width="100" height="35" as="geometry" />
        </mxCell>
        <mxCell id="eLQsRvn9i9R8ugrclSOC-90" value="" style="endArrow=none;html=1;rounded=0;entryX=0;entryY=0.5;entryDx=0;entryDy=0;exitX=0.623;exitY=-0.067;exitDx=0;exitDy=0;exitPerimeter=0;" edge="1" parent="1" target="eLQsRvn9i9R8ugrclSOC-82" source="eLQsRvn9i9R8ugrclSOC-91">
          <mxGeometry width="50" height="50" relative="1" as="geometry">
            <mxPoint x="160" y="380" as="sourcePoint" />
            <mxPoint x="340" y="340" as="targetPoint" />
          </mxGeometry>
        </mxCell>
        <mxCell id="eLQsRvn9i9R8ugrclSOC-91" value="ID_Diseño" style="ellipse;whiteSpace=wrap;html=1;" vertex="1" parent="1">
          <mxGeometry x="182.5" y="315" width="100" height="30" as="geometry" />
        </mxCell>
        <mxCell id="eLQsRvn9i9R8ugrclSOC-92" value="Tipo" style="ellipse;whiteSpace=wrap;html=1;" vertex="1" parent="1">
          <mxGeometry x="230" y="360" width="90" height="30" as="geometry" />
        </mxCell>
        <mxCell id="eLQsRvn9i9R8ugrclSOC-93" value="" style="endArrow=none;html=1;rounded=0;entryX=0.25;entryY=1;entryDx=0;entryDy=0;" edge="1" parent="1" source="eLQsRvn9i9R8ugrclSOC-92" target="eLQsRvn9i9R8ugrclSOC-82">
          <mxGeometry width="50" height="50" relative="1" as="geometry">
            <mxPoint x="580" y="420" as="sourcePoint" />
            <mxPoint x="630" y="370" as="targetPoint" />
          </mxGeometry>
        </mxCell>
        <mxCell id="eLQsRvn9i9R8ugrclSOC-95" value="Citas" style="rounded=0;whiteSpace=wrap;html=1;" vertex="1" parent="1">
          <mxGeometry x="335" y="370" width="130" height="40" as="geometry" />
        </mxCell>
        <mxCell id="eLQsRvn9i9R8ugrclSOC-98" value="" style="endArrow=none;html=1;rounded=0;entryX=0.5;entryY=0;entryDx=0;entryDy=0;exitX=1;exitY=0.5;exitDx=0;exitDy=0;" edge="1" parent="1" source="eLQsRvn9i9R8ugrclSOC-95" target="eLQsRvn9i9R8ugrclSOC-99">
          <mxGeometry width="50" height="50" relative="1" as="geometry">
            <mxPoint x="800" y="320" as="sourcePoint" />
            <mxPoint x="930" y="320" as="targetPoint" />
            <Array as="points" />
          </mxGeometry>
        </mxCell>
        <mxCell id="eLQsRvn9i9R8ugrclSOC-99" value="Telefono" style="ellipse;whiteSpace=wrap;html=1;" vertex="1" parent="1">
          <mxGeometry x="515" y="410" width="100" height="40" as="geometry" />
        </mxCell>
        <mxCell id="eLQsRvn9i9R8ugrclSOC-101" value="" style="endArrow=none;html=1;rounded=0;exitX=0.5;exitY=0;exitDx=0;exitDy=0;entryX=0.75;entryY=1;entryDx=0;entryDy=0;" edge="1" parent="1" source="eLQsRvn9i9R8ugrclSOC-103" target="eLQsRvn9i9R8ugrclSOC-95">
          <mxGeometry width="50" height="50" relative="1" as="geometry">
            <mxPoint x="900" y="350" as="sourcePoint" />
            <mxPoint x="800" y="325" as="targetPoint" />
          </mxGeometry>
        </mxCell>
        <mxCell id="eLQsRvn9i9R8ugrclSOC-103" value="Hora" style="ellipse;whiteSpace=wrap;html=1;" vertex="1" parent="1">
          <mxGeometry x="505" y="470" width="80" height="35" as="geometry" />
        </mxCell>
        <mxCell id="eLQsRvn9i9R8ugrclSOC-104" value="Fecha" style="ellipse;whiteSpace=wrap;html=1;" vertex="1" parent="1">
          <mxGeometry x="140" y="495" width="80" height="35" as="geometry" />
        </mxCell>
        <mxCell id="eLQsRvn9i9R8ugrclSOC-105" value="" style="endArrow=none;html=1;rounded=0;entryX=0.349;entryY=1.035;entryDx=0;entryDy=0;entryPerimeter=0;" edge="1" parent="1" source="eLQsRvn9i9R8ugrclSOC-104" target="eLQsRvn9i9R8ugrclSOC-95">
          <mxGeometry width="50" height="50" relative="1" as="geometry">
            <mxPoint x="700" y="390" as="sourcePoint" />
            <mxPoint x="750" y="340" as="targetPoint" />
          </mxGeometry>
        </mxCell>
        <mxCell id="eLQsRvn9i9R8ugrclSOC-110" value="" style="endArrow=none;html=1;rounded=0;exitX=0.5;exitY=1;exitDx=0;exitDy=0;" edge="1" parent="1" source="eLQsRvn9i9R8ugrclSOC-82" target="eLQsRvn9i9R8ugrclSOC-95">
          <mxGeometry width="50" height="50" relative="1" as="geometry">
            <mxPoint x="757" y="260" as="sourcePoint" />
            <mxPoint x="400" y="370" as="targetPoint" />
            <Array as="points">
              <mxPoint x="400" y="340" />
            </Array>
          </mxGeometry>
        </mxCell>
        <mxCell id="eLQsRvn9i9R8ugrclSOC-122" value="" style="endArrow=none;html=1;rounded=0;exitX=1;exitY=0.5;exitDx=0;exitDy=0;entryX=0;entryY=0.5;entryDx=0;entryDy=0;" edge="1" parent="1" source="eLQsRvn9i9R8ugrclSOC-131" target="eLQsRvn9i9R8ugrclSOC-129">
          <mxGeometry width="50" height="50" relative="1" as="geometry">
            <mxPoint x="1150" y="142.5" as="sourcePoint" />
            <mxPoint x="1260" y="110" as="targetPoint" />
          </mxGeometry>
        </mxCell>
        <mxCell id="eLQsRvn9i9R8ugrclSOC-129" value="ID_Lashhista" style="ellipse;whiteSpace=wrap;html=1;" vertex="1" parent="1">
          <mxGeometry x="515" y="530" width="125" height="40" as="geometry" />
        </mxCell>
        <mxCell id="eLQsRvn9i9R8ugrclSOC-131" value="Cierre_de_sesion" style="rounded=0;whiteSpace=wrap;html=1;" vertex="1" parent="1">
          <mxGeometry x="335" y="485" width="130" height="45" as="geometry" />
        </mxCell>
        <mxCell id="eLQsRvn9i9R8ugrclSOC-143" value="" style="endArrow=none;html=1;rounded=0;entryX=1;entryY=0;entryDx=0;entryDy=0;exitX=0;exitY=0.5;exitDx=0;exitDy=0;" edge="1" parent="1" source="eLQsRvn9i9R8ugrclSOC-144" target="eLQsRvn9i9R8ugrclSOC-23">
          <mxGeometry width="50" height="50" relative="1" as="geometry">
            <mxPoint x="500" y="200" as="sourcePoint" />
            <mxPoint x="450" y="215" as="targetPoint" />
            <Array as="points" />
          </mxGeometry>
        </mxCell>
        <mxCell id="eLQsRvn9i9R8ugrclSOC-144" value="ID_Lashista" style="ellipse;whiteSpace=wrap;html=1;" vertex="1" parent="1">
          <mxGeometry x="510" y="70" width="105" height="30" as="geometry" />
        </mxCell>
        <mxCell id="eLQsRvn9i9R8ugrclSOC-148" value="Edad" style="ellipse;whiteSpace=wrap;html=1;" vertex="1" parent="1">
          <mxGeometry x="565.02" y="250" width="90" height="30" as="geometry" />
        </mxCell>
        <mxCell id="eLQsRvn9i9R8ugrclSOC-149" value="" style="endArrow=none;html=1;rounded=0;entryX=1;entryY=1;entryDx=0;entryDy=0;exitX=0;exitY=0.5;exitDx=0;exitDy=0;" edge="1" parent="1" source="eLQsRvn9i9R8ugrclSOC-148" target="eLQsRvn9i9R8ugrclSOC-35">
          <mxGeometry width="50" height="50" relative="1" as="geometry">
            <mxPoint x="570" y="280" as="sourcePoint" />
            <mxPoint x="340" y="115" as="targetPoint" />
          </mxGeometry>
        </mxCell>
        <mxCell id="eLQsRvn9i9R8ugrclSOC-163" value="" style="endArrow=none;html=1;rounded=0;entryX=0;entryY=0.75;entryDx=0;entryDy=0;exitX=1;exitY=0;exitDx=0;exitDy=0;" edge="1" parent="1" target="eLQsRvn9i9R8ugrclSOC-95" source="eLQsRvn9i9R8ugrclSOC-164">
          <mxGeometry width="50" height="50" relative="1" as="geometry">
            <mxPoint x="620" y="370" as="sourcePoint" />
            <mxPoint x="800" y="340" as="targetPoint" />
          </mxGeometry>
        </mxCell>
        <mxCell id="eLQsRvn9i9R8ugrclSOC-164" value="ID_Cliente" style="ellipse;whiteSpace=wrap;html=1;" vertex="1" parent="1">
          <mxGeometry x="130" y="440" width="100" height="30" as="geometry" />
        </mxCell>
        <mxCell id="eLQsRvn9i9R8ugrclSOC-173" value="Estado" style="ellipse;whiteSpace=wrap;html=1;" vertex="1" parent="1">
          <mxGeometry x="230" y="590" width="120" height="40" as="geometry" />
        </mxCell>
        <mxCell id="eLQsRvn9i9R8ugrclSOC-174" value="" style="endArrow=none;html=1;rounded=0;exitX=0.25;exitY=1;exitDx=0;exitDy=0;entryX=0.5;entryY=0;entryDx=0;entryDy=0;" edge="1" parent="1" source="eLQsRvn9i9R8ugrclSOC-131" target="eLQsRvn9i9R8ugrclSOC-173">
          <mxGeometry width="50" height="50" relative="1" as="geometry">
            <mxPoint x="1148.0499999999997" y="159.14999999999986" as="sourcePoint" />
            <mxPoint x="1385" y="115.44" as="targetPoint" />
          </mxGeometry>
        </mxCell>
        <mxCell id="F4zPxPbh_BIEDQvp4IwT-1" value="Usuario" style="ellipse;whiteSpace=wrap;html=1;" vertex="1" parent="1">
          <mxGeometry x="590" y="100" width="70" height="30" as="geometry" />
        </mxCell>
        <mxCell id="F4zPxPbh_BIEDQvp4IwT-2" value="" style="endArrow=none;html=1;rounded=0;entryX=1;entryY=0.5;entryDx=0;entryDy=0;exitX=0;exitY=1;exitDx=0;exitDy=0;" edge="1" parent="1" source="F4zPxPbh_BIEDQvp4IwT-1" target="eLQsRvn9i9R8ugrclSOC-23">
          <mxGeometry width="50" height="50" relative="1" as="geometry">
            <mxPoint x="520" y="95" as="sourcePoint" />
            <mxPoint x="470" y="160" as="targetPoint" />
            <Array as="points" />
          </mxGeometry>
        </mxCell>
        <mxCell id="F4zPxPbh_BIEDQvp4IwT-13" value="" style="endArrow=none;html=1;rounded=0;entryX=0.5;entryY=1;entryDx=0;entryDy=0;exitX=0.5;exitY=0;exitDx=0;exitDy=0;" edge="1" parent="1" source="eLQsRvn9i9R8ugrclSOC-131" target="eLQsRvn9i9R8ugrclSOC-95">
          <mxGeometry width="50" height="50" relative="1" as="geometry">
            <mxPoint x="410" y="620" as="sourcePoint" />
            <mxPoint x="410" y="410" as="targetPoint" />
          </mxGeometry>
        </mxCell>
      </root>
    </mxGraphModel>
  </diagram>
</mxfile>
